<svg id="announcement-24px" xmlns="http://www.w3.org/2000/svg" width="31.328" height="31.328" viewBox="0 0 31.328 31.328">
  <path id="Trazado_13" data-name="Trazado 13" d="M0,0H31.328V31.328H0Z" fill="none"/>
  <g id="Grupo_555" data-name="Grupo 555" transform="translate(1.844 1.844)">
    <path id="Trazado_131" data-name="Trazado 131" d="M23.63,4.01a13.874,13.874,0,1,0,0,19.62A13.873,13.873,0,0,0,23.63,4.01ZM22,21.995a11.561,11.561,0,1,1,0-16.35A11.561,11.561,0,0,1,22,21.995Z" fill="#fff"/>
    <path id="Trazado_132" data-name="Trazado 132" d="M13.82,4.571a1.053,1.053,0,0,0-1.156.9v9.021a1.053,1.053,0,0,0,1.156.9,1.053,1.053,0,0,0,1.156-.9V5.473A1.053,1.053,0,0,0,13.82,4.571Z" transform="translate(0 1.049)" fill="#fff"/>
    <path id="Trazado_133" data-name="Trazado 133" d="M13.82,20.757a1.156,1.156,0,1,0,1.156,1.156A1.157,1.157,0,0,0,13.82,20.757Z" transform="translate(0 -2)" fill="#fff"/>
  </g>
</svg>
