<svg xmlns="http://www.w3.org/2000/svg" width="9" height="6" viewBox="0 0 9 6">
  <path id="Icon_awesome-eye" data-name="Icon awesome-eye" d="M8.946,7.272A5.012,5.012,0,0,0,4.5,4.5,5.012,5.012,0,0,0,.054,7.272a.505.505,0,0,0,0,.456A5.012,5.012,0,0,0,4.5,10.5,5.012,5.012,0,0,0,8.946,7.728.505.505,0,0,0,8.946,7.272ZM4.5,9.75A2.25,2.25,0,1,1,6.75,7.5,2.25,2.25,0,0,1,4.5,9.75ZM4.5,6a1.489,1.489,0,0,0-.4.059A.748.748,0,0,1,3.059,7.1,1.5,1.5,0,1,0,4.5,6Z" transform="translate(0 -4.5)" fill="#18446b"/>
</svg>
