<svg xmlns="http://www.w3.org/2000/svg" width="31" height="31" viewBox="0 0 31 31"><defs><style>.a{fill:none;}.b{fill:#fff;}</style></defs><path class="a" d="M0,0H31V31H0Z"/><path class="b" d="M4.7,7.4H2V26.3A2.708,2.708,0,0,0,4.7,29H23.6V26.3H4.7ZM26.3,2H10.1A2.708,2.708,0,0,0,7.4,4.7V20.9a2.708,2.708,0,0,0,2.7,2.7H26.3A2.708,2.708,0,0,0,29,20.9V4.7A2.708,2.708,0,0,0,26.3,2Zm0,18.9H10.1V4.7H26.3Zm-9.45-2.7h2.7V14.15H23.6v-2.7H19.55V7.4h-2.7v4.05H12.8v2.7h4.05Z" transform="translate(0 0)"/></svg>