<svg xmlns="http://www.w3.org/2000/svg" width="31" height="31" viewBox="0 0 31 31"><defs><style>.a{fill:none;}.b{fill:#fff;}</style></defs><path class="a" d="M0,0H31V31H0Z"/><path class="b" d="M4.7,7.4H2V26.3A2.708,2.708,0,0,0,4.7,29H23.6V26.3H4.7ZM26.3,2H10.1A2.708,2.708,0,0,0,7.4,4.7V20.9a2.708,2.708,0,0,0,2.7,2.7H26.3A2.708,2.708,0,0,0,29,20.9V4.7A2.708,2.708,0,0,0,26.3,2Zm0,18.9H10.1V4.7H26.3ZM12.8,11.45H23.6v2.7H12.8Zm0,4.05h5.4v2.7H12.8Zm0-8.1H23.6v2.7H12.8Z" transform="translate(0 0)"/></svg>