<svg xmlns="http://www.w3.org/2000/svg" width="31" height="31" viewBox="0 0 31 31"><defs><style>.a{fill:none;}.b{fill:#fff;}</style></defs><path class="a" d="M0,0H31V31H0Z"/><path class="b" d="M27.778,5.347a2.957,2.957,0,0,0-.25-.459,2.716,2.716,0,0,0-.75-.729,3.1,3.1,0,0,0-.472-.243A2.865,2.865,0,0,0,25.222,3.7H23.833V1H21.056V3.7H9.944V1H7.167V3.7H5.778a2.874,2.874,0,0,0-1.556.459,2.716,2.716,0,0,0-.75.729,2.957,2.957,0,0,0-.25.459A2.652,2.652,0,0,0,3,6.4V25.3A2.739,2.739,0,0,0,5.778,28H25.222a2.865,2.865,0,0,0,1.083-.216,3.1,3.1,0,0,0,.472-.243A2.677,2.677,0,0,0,28,25.3V6.4a2.652,2.652,0,0,0-.222-1.053ZM5.778,25.3V6.4H25.222V25.3ZM15.5,17.038c-2.819,0-8.333,1.458-8.333,4.833V23.95H23.833V21.884C23.833,18.5,18.319,17.038,15.5,17.038ZM10.375,21.25A9.936,9.936,0,0,1,15.5,19.738a9.894,9.894,0,0,1,5.125,1.512Zm5.125-5.4a4.122,4.122,0,0,0,4.167-4.05,4.168,4.168,0,0,0-8.333,0A4.122,4.122,0,0,0,15.5,15.85Zm0-5.4a1.351,1.351,0,1,1-1.389,1.35A1.374,1.374,0,0,1,15.5,10.45Z" transform="translate(0 0)"/></svg>