<svg xmlns="http://www.w3.org/2000/svg" width="29.001" height="29" viewBox="0 0 29.001 29"><defs><style>.a{fill:#fff;}</style></defs><path class="a" d="M10.344,15.313H4.906a.906.906,0,0,1,0-1.813h5.438a.906.906,0,0,1,0,1.813Z" transform="translate(0.833 2.813)"/><path class="a" d="M9.764,18.313H4.906a.906.906,0,0,1,0-1.813H9.764a.906.906,0,0,1,0,1.813Z" transform="translate(0.833 3.438)"/><circle class="a" cx="2.417" cy="2.417" r="2.417" transform="translate(7.854 3.625)"/><path class="a" d="M13.261,12.833H5.406a.907.907,0,0,1-.906-.906v-.6A3.326,3.326,0,0,1,7.823,8h3.021a3.326,3.326,0,0,1,3.323,3.323v.6A.907.907,0,0,1,13.261,12.833Z" transform="translate(0.938 1.667)"/><path class="a" d="M12.422,25.375h-9.1A3.326,3.326,0,0,1,0,22.052V3.323A3.326,3.326,0,0,1,3.323,0h13.9a3.326,3.326,0,0,1,3.323,3.323V11.2a.906.906,0,1,1-1.813,0V3.323a1.513,1.513,0,0,0-1.51-1.51H3.323a1.513,1.513,0,0,0-1.51,1.51V22.052a1.513,1.513,0,0,0,1.51,1.51h9.1a.906.906,0,1,1,0,1.813Z" transform="translate(0)"/><path class="a" d="M26.234,24.953,22.891,21.61a5.982,5.982,0,0,0,1.193-3.568,6.042,6.042,0,1,0-6.042,6.042,5.982,5.982,0,0,0,3.568-1.193l3.343,3.343a.906.906,0,1,0,1.281-1.281ZM13.813,18.042a4.229,4.229,0,1,1,4.229,4.229,4.234,4.234,0,0,1-4.229-4.229Z" transform="translate(2.5 2.5)"/></svg>