<svg xmlns="http://www.w3.org/2000/svg" width="31" height="31" viewBox="0 0 31 31"><defs><style>.a{fill:none;}.b{fill:#fff;}</style></defs><path class="a" d="M0,0H31V31H0Z"/><path class="b" d="M18.2,7.474V4.737H12.8V7.474ZM4.7,10.211V25.263H26.3V10.211ZM26.3,7.474A2.709,2.709,0,0,1,29,10.211V25.263A2.709,2.709,0,0,1,26.3,28H4.7A2.709,2.709,0,0,1,2,25.263l.014-15.053A2.7,2.7,0,0,1,4.7,7.474h5.4V4.737A2.709,2.709,0,0,1,12.8,2h5.4a2.709,2.709,0,0,1,2.7,2.737V7.474Z" transform="translate(0)"/></svg>