<svg xmlns="http://www.w3.org/2000/svg" width="751" height="561.795" viewBox="0 0 751 561.795">
  <g id="Grupo_552" data-name="Grupo 552" transform="translate(0 -0.436)" opacity="0.5">
    <path id="Trazado_114" data-name="Trazado 114" d="M999.875,704.5l2.81-11.084a143.928,143.928,0,0,1,15.27-5.478l.355,5.151,1.439-5.675c6.435-1.838,10.813-2.647,10.813-2.647s-5.913,22.487-18.316,39.678l-14.452,2.539,11.227,1.619A58.217,58.217,0,0,1,1004,733.92c-18.043,16.747-38.139,24.431-44.886,17.162s2.41-26.738,20.452-43.485c5.593-5.192,12.62-9.358,19.653-12.637Z" transform="translate(-279.561 -205.103)" fill="#e6e6e6"/>
    <path id="Trazado_115" data-name="Trazado 115" d="M972.517,687.887l-3.324-10.941a143.94,143.94,0,0,1,10.24-12.583l2.966,4.226-1.7-5.6c4.559-4.9,7.888-7.855,7.888-7.855s6.561,22.306,4.83,43.434l-11.059,9.643,10.448-4.418a58.221,58.221,0,0,1-1.548,7.152c-6.789,23.663-20.02,40.628-29.553,37.893s-11.758-24.134-4.97-47.8c2.1-7.336,5.966-14.534,10.292-20.977Z" transform="translate(-278.93 -200.532)" fill="#e6e6e6"/>
    <rect id="Rectángulo_165" data-name="Rectángulo 165" width="436.392" height="1.691" transform="translate(312.917 547.518)" fill="#3f3d56"/>
    <path id="Trazado_116" data-name="Trazado 116" d="M178.84,339.824c-5.907-8.768-8.446-24.34,2.539-32.014,5.448-3.806,12.062-3.342,17.787-1.667,7.92,2.317,14.963,7.039,21.055,12.323,7.027,6.095,13.043,13.24,18.975,20.387,5.856,7.056,11.791,14.031,18.017,20.757a425.753,425.753,0,0,0,39.22,37.292,422.5,422.5,0,0,0,42.742,31.449q11.09,7.126,22.655,13.526A202.059,202.059,0,0,0,384,452.867c10.118,4.069,27.456,9.755,36.429-1.659,4.758-6.052,5-14.264,3.921-21.162-1.3-8.34-4.574-16.123-7.8-23.726-15.01-35.362-30.195-70.639-45.293-105.957-3.524-8.243-7.153-16.454-10.08-24.974-2.741-7.976-5.022-16.385-5.076-25.072-.047-7.587,1.6-16.15,7.373-21.994,4.787-4.847,11.493-6.451,17.809-6.414,15.636.091,30.327,8.05,42.471,16.438,15.088,10.422,28.414,23.082,43.443,33.582,12.135,8.478,26.407,16.162,41.894,17.134,5.938.373,12.24-.419,17.65-3.663a24.4,24.4,0,0,0,10.555-14.2c2.028-6.824,1.775-14.033.7-20.759a85.734,85.734,0,0,0-7.246-22.728c-7.322-15.646-17.328-29.668-25.944-44.518-4.226-7.283-8.353-14.788-10.986-22.911-2.231-6.882-4.046-15.027-1.842-22.489,4.548-15.395,23.039-9.6,32.415-5.158a150.107,150.107,0,0,1,18.323,10.671c1.26.832,2.485-1.376,1.231-2.2a144.135,144.135,0,0,0-19.312-11.132c-5.715-2.615-12.007-4.9-18.564-4.771-5.507.105-11.057,2.412-14.289,7.339-3.824,5.829-3.56,13.366-2.531,19.62,1.361,8.27,4.61,15.91,8.357,23.179,3.946,7.656,8.448,14.976,12.978,22.264,9.051,14.562,18.966,29.294,23.48,46.294,3.158,11.892,5.153,30.467-7.7,38.954-5.705,3.767-12.7,4.313-19.01,3.6a69.7,69.7,0,0,1-21.684-6.579c-31.648-14.854-52.73-45.7-86.469-57.1-11.472-3.878-27.525-6.354-37.62,4.133-5.244,5.448-7.348,13.011-7.82,20.118-.566,8.512,1.211,16.889,3.626,24.772a245.057,245.057,0,0,0,9.335,24.3q5.674,13.294,11.362,26.58l22.99,53.778,11.422,26.72c3.486,8.155,7.223,16.35,9.04,25.191,1.488,7.239,1.91,17.2-4.466,23.023-5.064,4.625-12.462,4.411-18.39,3.337-7.676-1.391-14.9-4.43-21.769-7.783-7.927-3.868-15.644-8.158-23.22-12.621a410.808,410.808,0,0,1-44.81-30.6,427.073,427.073,0,0,1-40.632-36.238q-9.674-9.805-18.7-20.235c-6.2-7.169-12.02-14.678-18.44-21.649a90.271,90.271,0,0,0-19.555-16.6c-6.171-3.713-13.466-6.818-21.056-6.574a19.086,19.086,0,0,0-14.015,6.725,23.539,23.539,0,0,0-5.2,14.909,30.333,30.333,0,0,0,5.415,17.1c.844,1.253,2.984-.088,2.136-1.346Z" transform="translate(-158.359 -118.774)" fill="#e6e6e6"/>
    <rect id="Rectángulo_166" data-name="Rectángulo 166" width="101.334" height="89.974" transform="translate(15.895 17.03)" fill="#e6e6e6"/>
    <rect id="Rectángulo_167" data-name="Rectángulo 167" width="101.334" height="89.974" transform="translate(15.895 178.983)" fill="#18446b"/>
    <rect id="Rectángulo_168" data-name="Rectángulo 168" width="101.334" height="89.974" transform="translate(341.498 17.03)" fill="#18446b"/>
    <rect id="Rectángulo_169" data-name="Rectángulo 169" width="101.334" height="89.974" transform="translate(341.498 178.983)" fill="#e6e6e6"/>
    <rect id="Rectángulo_170" data-name="Rectángulo 170" width="101.334" height="89.974" transform="translate(179.847 17.03)" fill="#18446b"/>
    <rect id="Rectángulo_171" data-name="Rectángulo 171" width="101.334" height="89.974" transform="translate(179.847 178.983)" fill="#18446b"/>
    <ellipse id="Elipse_32" data-name="Elipse 32" cx="17" cy="16.5" rx="17" ry="16.5" transform="translate(163 0.436)" fill="#3f3d56"/>
    <ellipse id="Elipse_33" data-name="Elipse 33" cx="17" cy="16.5" rx="17" ry="16.5" transform="translate(326 0.436)" fill="#3f3d56"/>
    <circle id="Elipse_34" data-name="Elipse 34" cx="17" cy="17" r="17" transform="translate(0 162.436)" fill="#3f3d56"/>
    <circle id="Elipse_35" data-name="Elipse 35" cx="17" cy="17" r="17" transform="translate(163 162.436)" fill="#3f3d56"/>
    <path id="Trazado_117" data-name="Trazado 117" d="M831.4,754.74s-23.639,1.818-21.215,10.3,21.215,7.274,21.215,7.274,14.547-1.212,22.427,1.212,16.972,0,17.578-4.243-4.243-7.274-4.243-7.274l-3.031-6.061Z" transform="translate(-256.9 -215.899)" fill="#2f2e41"/>
    <path id="Trazado_118" data-name="Trazado 118" d="M760.628,530.767l-2.425,9.7s-10.91,22.427,2.425,22.427,8.486-20.609,8.486-20.609l1.212-9.7Z" transform="translate(-248.259 -181.345)" fill="#9f616a"/>
    <path id="Trazado_119" data-name="Trazado 119" d="M898.394,521.45l2.425,9.7s10.911,22.427-2.425,22.427-8.486-20.609-8.486-20.609l-1.212-9.7Z" transform="translate(-269.04 -179.908)" fill="#9f616a"/>
    <circle id="Elipse_36" data-name="Elipse 36" cx="26.064" cy="26.064" r="26.064" transform="translate(540.251 124.544)" fill="#9f616a"/>
    <path id="Trazado_120" data-name="Trazado 120" d="M816.307,318.562s3.031,13.941,1.212,20.609,37.581-1.212,37.581-1.212-13.941-23.033-13.335-23.64Z" transform="translate(-257.872 -147.952)" fill="#9f616a"/>
    <path id="Trazado_121" data-name="Trazado 121" d="M816.287,337.445s-10.911-3.031-14.547.606-24.852,13.941-24.852,13.941l14.547,89.1,63.039-13.941L865.385,342.9s-17.189-10.079-20.111-8.07S816.287,337.445,816.287,337.445Z" transform="translate(-251.79 -151.075)" fill="#d0cde1"/>
    <path id="Trazado_122" data-name="Trazado 122" d="M778.973,355.6l-2.909-1.56s-11.032,2.166-10.426,10.652,3.031,55.765,3.031,55.765l-9.7,85.466,17.578,3.031,17.578-71.525Z" transform="translate(-249.026 -154.08)" fill="#d0cde1"/>
    <path id="Trazado_123" data-name="Trazado 123" d="M876.614,346.286l2.909-1.56s11.032,2.166,10.426,10.652-3.031,55.765-3.031,55.765l9.7,85.466-17.578,3.031L861.46,428.115Z" transform="translate(-264.838 -152.643)" fill="#d0cde1"/>
    <path id="Trazado_124" data-name="Trazado 124" d="M792.926,448.23,790.5,485.2l-7.88,73.949,11.517,153.354,40.005,1.212L822.021,567.64l12.123-50.31,39.626-1.468s2.8-57.934-19.623-76.118Z" transform="translate(-252.675 -167.302)" fill="#2f2e41"/>
    <path id="Trazado_125" data-name="Trazado 125" d="M688.861,402.41,682.5,536.064l-2.122,67.585,35.763,3.637,9.023-198.759-13.872-14Z" transform="translate(-104.968 -60.868)" fill="#2f2e41"/>
    <path id="Trazado_126" data-name="Trazado 126" d="M831.844,254.766s-23.639-3.031-30.307,8.486c0,0-1.818,8.486-7.88,11.517s1.212,13.335,3.031,16.366,6.668,20.609,1.212,24.852,9.7,16.366,9.7,16.366,7.274,9.7,1.212,16.972,7.88,9.7,7.88,9.7-3.031,20.609,2.425,15.154c0,0,2.425,46.673,25.458,17.578S877.3,348.718,867.606,337.2s-2.425-21.821-2.425-21.821,3.031-6.061-3.637-15.154S854.877,254.766,831.844,254.766Z" transform="translate(-254.012 -138.708)" fill="#2f2e41"/>
    <path id="Trazado_127" data-name="Trazado 127" d="M794.846,759.041s-23.64,1.818-21.215,10.3,21.215,7.274,21.215,7.274,14.547-1.212,22.427,1.212,16.972,0,17.578-4.243-4.243-7.274-4.243-7.274l-3.031-6.061Z" transform="translate(-251.261 -216.563)" fill="#2f2e41"/>
  </g>
</svg>
